####
#
# OBJ File Generated by Meshlab
#
####
# Object fridgefloor.obj
#
# Vertices: 172
# Faces: 118
#
####
vn 0.001667 0.001667 0.999997
v 3.000000 3.000000 0.000000
vn 0.003333 0.003333 -0.999989
v 3.000000 3.000000 -0.010000
vn 0.001667 -0.000833 0.999998
v 3.000000 -3.000000 0.000000
vn 0.000833 -0.001667 -0.999998
v 3.000000 -3.000000 -0.010000
vn -0.000833 0.001667 0.999998
v -3.000000 3.000000 0.000000
vn -0.001667 0.000833 -0.999998
v -3.000000 3.000000 -0.010000
vn -0.003333 -0.003333 0.999989
v -3.000000 -3.000000 0.000000
vn -0.001667 -0.001667 -0.999997
v -3.000000 -3.000000 -0.010000
vn 0.000000 0.000000 -1.000000
v 0.775000 0.275000 0.100000
vn 0.000000 0.000000 -1.000000
v 0.000000 0.275000 0.100000
vn 0.000000 0.000000 -1.000000
v 0.000000 0.900000 0.100000
vn 0.000000 0.000000 -1.000000
v 0.775000 0.900000 0.100000
vn 0.000000 -1.000000 -0.000000
v 0.000000 0.275000 0.100000
vn 0.000000 -1.000000 -0.000000
v 0.775000 0.275000 0.100000
vn 0.000000 -1.000000 -0.000000
v 0.775000 0.275000 1.750000
vn 0.000000 -1.000000 -0.000000
v 0.000000 0.275000 1.750000
vn 1.000000 0.000000 0.000000
v 0.775000 0.275000 0.100000
vn 1.000000 0.000000 0.000000
v 0.775000 0.900000 0.100000
vn 1.000000 0.000000 0.000000
v 0.775000 0.900000 1.750000
vn 1.000000 0.000000 0.000000
v 0.775000 0.275000 1.750000
vn 0.000000 1.000000 0.000000
v 0.775000 0.900000 0.100000
vn -0.000000 1.000000 0.000000
v 0.700000 0.900000 0.225000
vn -0.000000 1.000000 0.000000
v 0.775000 0.900000 1.750000
vn 0.000000 1.000000 0.000000
v 0.075000 0.900000 0.225000
vn -0.000000 1.000000 0.000000
v 0.000000 0.900000 0.100000
vn 0.000000 1.000000 0.000000
v 0.000000 0.900000 1.750000
vn -1.000000 0.000000 0.000000
v 0.000000 0.900000 0.100000
vn -1.000000 0.000000 0.000000
v 0.000000 0.275000 0.100000
vn -1.000000 0.000000 0.000000
v 0.000000 0.275000 1.750000
vn -1.000000 0.000000 0.000000
v 0.000000 0.900000 1.750000
vn 0.000000 0.000000 1.000000
v 0.000000 0.275000 1.750000
vn 0.000000 0.000000 1.000000
v 0.775000 0.275000 1.750000
vn 0.000000 0.000000 1.000000
v 0.775000 0.900000 1.750000
vn 0.000000 0.000000 1.000000
v 0.000000 0.900000 1.750000
vn 0.000000 1.000000 0.000000
v 0.700000 0.900000 1.675000
vn 0.000000 1.000000 0.000000
v 0.700000 0.900000 1.425000
vn 0.000000 1.000000 0.000000
v 0.700000 0.900000 1.400000
vn 0.000000 1.000000 0.000000
v 0.700000 0.900000 1.312500
vn -0.000000 1.000000 0.000000
v 0.700000 0.900000 1.225000
vn -1.000000 0.000000 0.000000
v 0.700000 0.900000 1.225000
vn -1.000000 0.000000 0.000000
v 0.700000 0.900000 0.225000
vn -1.000000 0.000000 0.000000
v 0.700000 0.787500 0.225000
vn -1.000000 0.000000 0.000000
v 0.700000 0.787500 0.462500
vn -1.000000 0.000000 0.000000
v 0.700000 0.287500 0.462500
vn -1.000000 0.000000 0.000000
v 0.700000 0.287500 0.575000
vn -1.000000 0.000000 0.000000
v 0.700000 0.737500 0.575000
vn -1.000000 0.000000 0.000000
v 0.700000 0.737500 0.600000
vn -1.000000 0.000000 0.000000
v 0.700000 0.287500 0.600000
vn -1.000000 0.000000 0.000000
v 0.700000 0.287500 0.862500
vn -1.000000 0.000000 0.000000
v 0.700000 0.737500 0.862500
vn -1.000000 0.000000 0.000000
v 0.700000 0.737500 0.887500
vn -1.000000 0.000000 0.000000
v 0.700000 0.287500 0.887500
vn -1.000000 0.000000 0.000000
v 0.700000 0.287500 1.225000
vn 0.000000 0.000000 1.000000
v 0.700000 0.900000 0.225000
vn 0.000000 0.000000 1.000000
v 0.075000 0.900000 0.225000
vn 0.000000 0.000000 1.000000
v 0.075000 0.787500 0.225000
vn 0.000000 0.000000 1.000000
v 0.700000 0.787500 0.225000
vn 1.000000 0.000000 0.000000
v 0.075000 0.900000 0.225000
vn 1.000000 0.000000 0.000000
v 0.075000 0.900000 1.225000
vn 1.000000 0.000000 0.000000
v 0.075000 0.287500 1.225000
vn 1.000000 0.000000 0.000000
v 0.075000 0.287500 0.887500
vn 1.000000 0.000000 0.000000
v 0.075000 0.737500 0.887500
vn 1.000000 0.000000 0.000000
v 0.075000 0.737500 0.862500
vn 1.000000 0.000000 0.000000
v 0.075000 0.287500 0.862500
vn 1.000000 0.000000 0.000000
v 0.075000 0.287500 0.600000
vn 1.000000 0.000000 0.000000
v 0.075000 0.737500 0.600000
vn 1.000000 0.000000 0.000000
v 0.075000 0.737500 0.575000
vn 1.000000 0.000000 0.000000
v 0.075000 0.287500 0.575000
vn 1.000000 0.000000 0.000000
v 0.075000 0.287500 0.462500
vn 1.000000 0.000000 0.000000
v 0.075000 0.787500 0.462500
vn 1.000000 0.000000 0.000000
v 0.075000 0.787500 0.225000
vn 0.000000 1.000000 0.000000
v 0.075000 0.900000 1.225000
vn 0.000000 1.000000 0.000000
v 0.075000 0.900000 1.312500
vn 0.000000 1.000000 0.000000
v 0.075000 0.900000 1.400000
vn 0.000000 1.000000 0.000000
v 0.075000 0.900000 1.425000
vn 0.000000 1.000000 0.000000
v 0.075000 0.900000 1.675000
vn 0.000000 0.000000 -1.000000
v 0.075000 0.900000 1.675000
vn 0.000000 0.000000 -1.000000
v 0.700000 0.900000 1.675000
vn 0.000000 0.000000 -1.000000
v 0.700000 0.387500 1.675000
vn 0.000000 0.000000 -1.000000
v 0.075000 0.387500 1.675000
vn -1.000000 0.000000 0.000000
v 0.700000 0.900000 1.675000
vn -1.000000 0.000000 0.000000
v 0.700000 0.900000 1.425000
vn -1.000000 0.000000 0.000000
v 0.700000 0.737500 1.425000
vn -1.000000 0.000000 0.000000
v 0.700000 0.387500 1.425000
vn -1.000000 0.000000 0.000000
v 0.700000 0.387500 1.675000
vn -1.000000 0.000000 0.000000
v 0.700000 0.900000 1.400000
vn -1.000000 0.000000 0.000000
v 0.700000 0.737500 1.400000
vn -1.000000 0.000000 0.000000
v 0.700000 0.387500 1.312500
vn -1.000000 0.000000 0.000000
v 0.700000 0.387500 1.400000
vn -1.000000 0.000000 0.000000
v 0.700000 0.900000 1.312500
vn 0.000000 1.000000 0.000000
v 0.075000 0.387500 1.312500
vn 0.000000 1.000000 0.000000
v 0.075000 0.387500 1.400000
vn 0.000000 1.000000 0.000000
v 0.700000 0.387500 1.400000
vn 0.000000 1.000000 0.000000
v 0.700000 0.387500 1.312500
vn 1.000000 0.000000 0.000000
v 0.075000 0.900000 1.312500
vn 1.000000 0.000000 0.000000
v 0.075000 0.900000 1.400000
vn 1.000000 0.000000 0.000000
v 0.075000 0.737500 1.400000
vn 1.000000 0.000000 0.000000
v 0.075000 0.387500 1.400000
vn 1.000000 0.000000 0.000000
v 0.075000 0.387500 1.312500
vn 1.000000 0.000000 0.000000
v 0.075000 0.900000 1.425000
vn 1.000000 0.000000 0.000000
v 0.075000 0.737500 1.425000
vn 1.000000 0.000000 0.000000
v 0.075000 0.387500 1.675000
vn 1.000000 0.000000 0.000000
v 0.075000 0.387500 1.425000
vn 1.000000 0.000000 0.000000
v 0.075000 0.900000 1.675000
vn 0.000000 1.000000 0.000000
v 0.700000 0.387500 1.675000
vn 0.000000 1.000000 0.000000
v 0.700000 0.387500 1.425000
vn 0.000000 1.000000 0.000000
v 0.075000 0.387500 1.425000
vn 0.000000 1.000000 0.000000
v 0.075000 0.387500 1.675000
vn 0.000000 0.000000 1.000000
v 0.075000 0.387500 1.425000
vn 0.000000 0.000000 1.000000
v 0.700000 0.387500 1.425000
vn 0.000000 0.000000 1.000000
v 0.700000 0.737500 1.425000
vn 0.000000 0.000000 1.000000
v 0.075000 0.737500 1.425000
vn 0.000000 1.000000 0.000000
v 0.075000 0.737500 1.400000
vn 0.000000 1.000000 0.000000
v 0.075000 0.737500 1.425000
vn 0.000000 1.000000 0.000000
v 0.700000 0.737500 1.425000
vn 0.000000 1.000000 0.000000
v 0.700000 0.737500 1.400000
vn 0.000000 0.000000 -1.000000
v 0.700000 0.387500 1.400000
vn 0.000000 0.000000 -1.000000
v 0.075000 0.387500 1.400000
vn 0.000000 0.000000 -1.000000
v 0.075000 0.737500 1.400000
vn 0.000000 0.000000 -1.000000
v 0.700000 0.737500 1.400000
vn 0.000000 0.000000 1.000000
v 0.700000 0.900000 1.312500
vn 0.000000 0.000000 1.000000
v 0.075000 0.900000 1.312500
vn 0.000000 0.000000 1.000000
v 0.075000 0.387500 1.312500
vn 0.000000 0.000000 1.000000
v 0.700000 0.387500 1.312500
vn 0.000000 0.000000 -1.000000
v 0.075000 0.900000 1.225000
vn 0.000000 0.000000 -1.000000
v 0.700000 0.900000 1.225000
vn 0.000000 0.000000 -1.000000
v 0.700000 0.287500 1.225000
vn 0.000000 0.000000 -1.000000
v 0.075000 0.287500 1.225000
vn 0.000000 1.000000 0.000000
v 0.700000 0.287500 1.225000
vn 0.000000 1.000000 0.000000
v 0.700000 0.287500 0.887500
vn 0.000000 1.000000 0.000000
v 0.075000 0.287500 0.887500
vn 0.000000 1.000000 0.000000
v 0.075000 0.287500 1.225000
vn 0.000000 0.000000 1.000000
v 0.075000 0.287500 0.887500
vn 0.000000 0.000000 1.000000
v 0.700000 0.287500 0.887500
vn 0.000000 0.000000 1.000000
v 0.700000 0.737500 0.887500
vn 0.000000 0.000000 1.000000
v 0.075000 0.737500 0.887500
vn 0.000000 1.000000 0.000000
v 0.075000 0.737500 0.862500
vn 0.000000 1.000000 0.000000
v 0.075000 0.737500 0.887500
vn 0.000000 1.000000 0.000000
v 0.700000 0.737500 0.887500
vn 0.000000 1.000000 0.000000
v 0.700000 0.737500 0.862500
vn 0.000000 0.000000 -1.000000
v 0.700000 0.287500 0.862500
vn 0.000000 0.000000 -1.000000
v 0.075000 0.287500 0.862500
vn 0.000000 0.000000 -1.000000
v 0.075000 0.737500 0.862500
vn 0.000000 0.000000 -1.000000
v 0.700000 0.737500 0.862500
vn 0.000000 1.000000 0.000000
v 0.700000 0.287500 0.862500
vn 0.000000 1.000000 0.000000
v 0.700000 0.287500 0.600000
vn 0.000000 1.000000 0.000000
v 0.075000 0.287500 0.600000
vn 0.000000 1.000000 0.000000
v 0.075000 0.287500 0.862500
vn 0.000000 -0.000000 1.000000
v 0.075000 0.287500 0.600000
vn 0.000000 -0.000000 1.000000
v 0.700000 0.287500 0.600000
vn 0.000000 -0.000000 1.000000
v 0.700000 0.737500 0.600000
vn 0.000000 -0.000000 1.000000
v 0.075000 0.737500 0.600000
vn 0.000000 1.000000 0.000000
v 0.700000 0.737500 0.600000
vn 0.000000 1.000000 0.000000
v 0.700000 0.737500 0.575000
vn 0.000000 1.000000 0.000000
v 0.075000 0.737500 0.575000
vn 0.000000 1.000000 0.000000
v 0.075000 0.737500 0.600000
vn 0.000000 0.000000 -1.000000
v 0.700000 0.287500 0.575000
vn 0.000000 0.000000 -1.000000
v 0.075000 0.287500 0.575000
vn 0.000000 0.000000 -1.000000
v 0.075000 0.737500 0.575000
vn 0.000000 0.000000 -1.000000
v 0.700000 0.737500 0.575000
vn 0.000000 1.000000 0.000000
v 0.700000 0.287500 0.575000
vn 0.000000 1.000000 0.000000
v 0.700000 0.287500 0.462500
vn 0.000000 1.000000 0.000000
v 0.075000 0.287500 0.462500
vn 0.000000 1.000000 0.000000
v 0.075000 0.287500 0.575000
vn 0.000000 -0.000000 1.000000
v 0.075000 0.287500 0.462500
vn 0.000000 -0.000000 1.000000
v 0.700000 0.287500 0.462500
vn 0.000000 -0.000000 1.000000
v 0.700000 0.787500 0.462500
vn 0.000000 -0.000000 1.000000
v 0.075000 0.787500 0.462500
vn 0.000000 1.000000 0.000000
v 0.075000 0.787500 0.225000
vn 0.000000 1.000000 0.000000
v 0.075000 0.787500 0.462500
vn 0.000000 1.000000 0.000000
v 0.700000 0.787500 0.462500
vn 0.000000 1.000000 0.000000
v 0.700000 0.787500 0.225000
# 172 vertices, 0 vertices normals

f 1//1 3//3 2//2
f 2//2 3//3 4//4
f 5//5 6//6 7//7
f 6//6 8//8 7//7
f 1//1 2//2 5//5
f 2//2 6//6 5//5
f 3//3 7//7 4//4
f 4//4 7//7 8//8
f 1//1 5//5 3//3
f 3//3 5//5 7//7
f 2//2 4//4 6//6
f 4//4 8//8 6//6
f 9//9 10//10 11//11
f 9//9 11//11 12//12
f 13//13 14//14 15//15
f 13//13 15//15 16//16
f 17//17 18//18 19//19
f 17//17 19//19 20//20
f 21//21 22//22 23//23
f 22//22 21//21 24//24
f 25//25 24//24 21//21
f 24//24 25//25 26//26
f 27//27 28//28 29//29
f 27//27 29//29 30//30
f 31//31 32//32 33//33
f 31//31 33//33 34//34
f 23//23 35//35 26//26
f 23//23 36//36 35//35
f 23//23 37//37 36//36
f 23//23 38//38 37//37
f 23//23 39//39 38//38
f 23//23 22//22 39//39
f 40//40 41//41 42//42
f 40//40 42//42 43//43
f 43//43 44//44 45//45
f 43//43 45//45 46//46
f 43//43 46//46 47//47
f 47//47 48//48 49//49
f 47//47 49//49 50//50
f 51//51 52//52 53//53
f 51//51 53//53 40//40
f 51//51 40//40 43//43
f 43//43 47//47 51//51
f 54//54 55//55 56//56
f 54//54 56//56 57//57
f 71//71 58//58 59//59
f 59//59 60//60 61//61
f 59//59 61//61 62//62
f 59//59 62//62 63//63
f 63//63 64//64 65//65
f 63//63 65//65 66//66
f 67//67 68//68 69//69
f 67//67 69//69 70//70
f 70//70 71//71 59//59
f 70//70 59//59 63//63
f 63//63 67//67 70//70
f 24//24 26//26 72//72
f 72//72 26//26 73//73
f 73//73 26//26 74//74
f 74//74 26//26 75//75
f 75//75 26//26 76//76
f 76//76 26//26 35//35
f 77//77 78//78 79//79
f 77//77 79//79 80//80
f 85//85 81//81 82//82
f 85//85 82//82 83//83
f 83//83 84//84 85//85
f 82//82 86//86 87//87
f 82//82 87//87 83//83
f 90//90 88//88 89//89
f 90//90 89//89 87//87
f 87//87 86//86 90//90
f 91//91 92//92 93//93
f 91//91 93//93 94//94
f 99//99 95//95 96//96
f 99//99 96//96 97//97
f 97//97 98//98 99//99
f 96//96 100//100 101//101
f 96//96 101//101 97//97
f 104//104 102//102 103//103
f 104//104 103//103 101//101
f 101//101 100//100 104//104
f 105//105 106//106 107//107
f 105//105 107//107 108//108
f 109//109 110//110 111//111
f 109//109 111//111 112//112
f 113//113 114//114 115//115
f 113//113 115//115 116//116
f 117//117 118//118 119//119
f 117//117 119//119 120//120
f 121//121 122//122 123//123
f 121//121 123//123 124//124
f 38//38 39//39 73//73
f 72//72 73//73 39//39
f 125//125 126//126 127//127
f 125//125 127//127 128//128
f 129//129 130//130 131//131
f 129//129 131//131 132//132
f 133//133 134//134 135//135
f 133//133 135//135 136//136
f 137//137 138//138 139//139
f 137//137 139//139 140//140
f 141//141 142//142 143//143
f 141//141 143//143 144//144
f 145//145 146//146 147//147
f 145//145 147//147 148//148
f 149//149 150//150 151//151
f 149//149 151//151 152//152
f 153//153 154//154 155//155
f 153//153 155//155 156//156
f 157//157 158//158 159//159
f 157//157 159//159 160//160
f 161//161 162//162 163//163
f 161//161 163//163 164//164
f 165//165 166//166 167//167
f 165//165 167//167 168//168
f 169//169 170//170 171//171
f 169//169 171//171 172//172
# 118 faces, 0 coords texture

# End of File